<?xml version="1.0" encoding="iso-8859-1"?>
<!-- Uploaded to: SVG Repo, www.svgrepo.com, Generator: SVG Repo Mixer Tools -->
<svg height="800px" width="800px" version="1.1" id="Layer_1" xmlns="http://www.w3.org/2000/svg" xmlns:xlink="http://www.w3.org/1999/xlink" 
	 viewBox="0 0 503.543 503.543" xml:space="preserve">
<g transform="translate(3 1)">
	<path style="fill:#AAB1BA;" d="M198.425,379.586L112.238,498.2l-59.733-42.667l30.72-44.373
		c-6.827-8.533-16.213-20.48-22.187-29.867c0,0-8.533-14.507-15.36-29.867v-0.853l88.747-51.2
		C148.078,331.8,171.118,362.52,198.425,379.586z M362.265,299.373l88.747,51.2c-5.973,14.507-15.36,30.72-15.36,30.72
		c-5.973,9.387-15.36,20.48-22.187,29.013l31.573,44.373l-59.733,42.667l-86.187-118.613
		C326.425,362.52,348.611,332.653,362.265,299.373z"/>
	<path style="fill:#FFD0A1;" d="M86.638,233.666c0-9.387-7.68-17.067-17.067-17.067s-17.067,7.68-17.067,17.067
		s7.68,17.067,17.067,17.067S86.638,243.053,86.638,233.666 M134.425,119.32c6.827-6.827,6.827-17.067,0-23.893
		c-6.827-6.827-17.92-6.827-23.893,0c-5.973,6.827-6.827,17.067,0,23.893C116.505,126.146,127.598,126.146,134.425,119.32
		 M265.838,54.466c0-9.387-7.68-17.067-17.067-17.067c-9.387,0-17.067,7.68-17.067,17.067s7.68,17.067,17.067,17.067
		C258.158,71.533,265.838,63.853,265.838,54.466 M387.865,119.32c6.827-6.827,6.827-17.92,0-23.893
		c-6.827-6.827-17.067-6.827-23.893,0s-6.827,17.067,0,23.893C369.945,125.293,381.038,126.146,387.865,119.32 M445.038,233.666
		c0-9.387-7.68-17.067-17.067-17.067s-17.067,7.68-17.067,17.067s7.68,17.067,17.067,17.067S445.038,243.053,445.038,233.666
		 M479.171,233.666c0,39.253-10.24,80.213-27.307,116.907l-88.747-51.2c9.387-22.187,14.507-45.227,14.507-65.707
		c0-70.827-57.173-128-128-128c-70.827,0-128,57.173-128,128c0,21.333,5.12,43.52,13.653,65.707l-88.747,51.2
		C29.465,313.88,19.225,272.92,19.225,233.666c0-127.147,103.253-230.4,230.4-230.4S479.171,106.52,479.171,233.666"/>
</g>
<path style="fill:#51565F;" d="M388.305,503.466c-1.707,0-2.56-0.853-3.413-1.707l-86.187-118.613
	c-0.853-0.853-0.853-2.56-0.853-3.413s0.853-2.56,1.707-2.56c42.667-27.307,75.093-88.747,75.093-142.507
	c0-68.267-55.467-123.733-123.733-123.733S127.185,166.4,127.185,234.666c0,53.76,32.427,115.2,75.093,142.507
	c0.853,0.853,1.707,1.707,1.707,2.56c0,0.853,0,2.56-0.853,3.413L116.945,501.76c-1.707,1.707-4.267,2.56-5.973,0.853
	l-59.733-42.667c-1.707-1.707-2.56-4.267-0.853-5.973l29.013-41.813c-6.827-7.68-14.507-18.773-20.48-27.307
	c-0.853-1.707-0.853-4.267,1.707-5.973c1.707-0.853,4.267-0.853,5.973,1.707c5.973,9.387,15.36,21.333,22.187,29.013
	c0.853,1.707,0.853,3.413,0,5.12l-29.013,40.96l52.907,37.547l81.067-110.933c-43.52-29.867-75.947-92.16-75.947-147.627
	c0-72.533,59.733-132.267,132.267-132.267s132.267,59.733,132.267,132.267c0,54.613-32.427,116.907-75.947,147.627l81.067,110.933
	l52.907-37.547l-29.013-40.96c-0.853-1.707-0.853-3.413,0-5.12l3.413-4.267c6.827-7.68,13.653-17.067,18.773-24.747
	c1.707-1.707,4.267-2.56,5.973-1.707c1.707,0.853,2.56,4.267,1.707,5.973c-5.12,8.533-12.8,17.92-19.627,25.6l-0.853,1.707
	l29.013,41.813c1.707,1.707,0.853,4.267-0.853,5.973l-59.733,42.667C390.011,503.466,389.158,503.466,388.305,503.466z
	 M454.865,355.84c-0.853,0-1.707,0-2.56-0.853l-62.293-35.84c-1.707-0.853-2.56-3.413-1.707-5.973
	c0.853-2.56,3.413-2.56,5.973-1.707l58.027,34.133c16.213-35.84,25.6-74.24,25.6-110.933c0-124.587-101.547-226.133-226.133-226.133
	S25.638,110.079,25.638,234.666c0,36.693,8.533,75.093,24.747,110.933l58.88-33.28c1.707-0.853,4.267-0.853,5.973,1.707
	c0.853,1.707,0.853,4.267-1.707,5.973l-62.293,35.84c-0.853,0.853-2.56,0.853-3.413,0c-0.853-0.853-1.707-0.853-2.56-2.56
	c-17.92-38.4-28.16-79.36-28.16-118.613C17.105,104.96,122.065,0,251.772,0c129.707,0,234.667,104.96,234.667,234.667
	c0,39.253-9.387,80.213-28.16,118.613c-0.853,0.853-1.707,1.707-2.56,2.56C455.718,355.84,454.865,355.84,454.865,355.84z
	 M430.971,256c-11.947,0-21.333-9.387-21.333-21.333c0-11.947,9.387-21.333,21.333-21.333c5.973,0,11.093,2.56,15.36,5.973
	c4.267,4.267,5.973,9.387,5.973,15.36C452.305,246.613,442.918,256,430.971,256z M430.971,221.866c-6.827,0-12.8,5.973-12.8,12.8
	c0,6.827,5.973,12.8,12.8,12.8s12.8-5.973,12.8-12.8c0-3.413-1.707-6.827-3.413-9.387
	C437.798,223.573,434.385,221.866,430.971,221.866z M72.571,256c-5.973,0-11.093-2.56-15.36-5.973
	c-4.267-4.267-5.973-9.387-5.973-15.36c0-5.973,2.56-11.093,5.973-15.36s9.387-5.973,15.36-5.973l0,0
	c11.947,0,21.333,9.387,21.333,21.333C93.905,246.613,84.518,256,72.571,256z M72.571,221.866c-3.413,0-6.827,1.707-9.387,3.413
	c-2.56,2.56-3.413,5.973-3.413,9.387c0,3.413,1.707,6.827,3.413,9.387c2.56,2.56,5.973,3.413,9.387,3.413
	c6.827,0,12.8-5.973,12.8-12.8C85.371,227.84,79.398,221.866,72.571,221.866z M125.478,129.707L125.478,129.707
	c-5.973,0-11.093-2.56-15.36-5.973c-8.533-8.533-8.533-22.187,0-29.867c8.533-8.533,22.187-8.533,29.867,0
	c4.267,4.267,5.973,9.387,5.973,15.36c0,5.973-2.56,11.093-5.973,15.36C135.718,127.146,130.598,129.707,125.478,129.707z
	 M125.478,95.573c-3.413,0-6.827,0.853-9.387,3.413c-5.12,5.12-5.12,12.8,0,17.92c2.56,2.56,5.973,3.413,9.387,3.413l0,0
	c3.413,0,6.827-1.707,9.387-3.413c2.56-2.56,3.413-5.973,3.413-9.387c0-3.413-1.707-6.827-3.413-9.387
	C131.451,96.426,128.038,95.573,125.478,95.573z M378.065,128.853c-5.12,0-11.093-1.707-15.36-5.973
	c-8.533-8.533-8.533-22.187,0-29.867c4.267-4.267,9.387-5.973,15.36-5.973l0,0c5.973,0,11.093,2.56,15.36,5.973
	c8.533,8.533,8.533,22.187,0,29.867l0,0C389.158,127.146,384.038,128.853,378.065,128.853z M378.918,95.573
	c-3.413,0-6.827,1.707-9.387,3.413c-5.12,5.12-5.12,12.8,0,17.92c5.12,5.12,12.8,5.12,17.92,0c5.12-5.12,5.12-12.8,0-17.92
	C384.891,96.426,382.331,95.573,378.918,95.573L378.918,95.573z M251.771,76.8c-11.947,0-21.333-9.387-21.333-21.333
	s9.387-21.333,21.333-21.333c11.947,0,21.333,9.387,21.333,21.333S263.718,76.8,251.771,76.8z M251.771,42.666
	c-6.827,0-12.8,5.973-12.8,12.8s5.973,12.8,12.8,12.8c6.827,0,12.8-5.973,12.8-12.8S258.598,42.666,251.771,42.666z"/>
</svg>